<svg width="380" height="76" viewBox="0 0 380 76" fill="none" xmlns="http://www.w3.org/2000/svg">
<path d="M330.455 75.5002L346.583 38.0014H346.637L330.474 0.499695H346.899L363.062 38.0014H363.005L346.877 75.5002H330.455Z" fill="#9D122E"/>
<path d="M346.893 75.5002L363.021 38.0014H363.075L346.912 0.499695H363.336L379.499 38.0014H379.443L363.314 75.5002H346.893Z" fill="#C50F3C"/>
<path d="M43.4555 74.4997C20.6115 74.4997 1.32037 61.0602 0.500977 38.4997L0.500977 36.4997C1.32037 13.9391 20.6115 0.499695 43.4555 0.499695C55.234 0.499695 64.1292 3.92973 74.4739 8.99969L69.0882 19.4997C61.4739 14.9997 53.8916 12.3269 42.7833 12.3269C27.7743 12.3269 14.2568 19.4201 14.0119 37.4997C14.2568 55.5793 27.7743 62.6725 42.7833 62.6725C53.8916 62.6725 61.4739 59.9997 69.0882 55.4997L74.4739 65.9997C64.1292 71.0697 55.234 74.4997 43.4555 74.4997Z" fill="#5B6770"/>
<path d="M147.862 73.9973H161.398V1.00208H146.599C142.65 8.71097 138.762 16.5574 134.87 24.4109L134.869 24.4133C130.999 32.2217 127.126 40.0371 123.187 47.7317C118.905 39.1225 115.912 32.9113 112.11 25.0192C109.092 18.7544 105.563 11.4298 100.474 1.0065H85.6379C85.7337 16.3166 85.7029 31.6289 85.6722 46.9407C85.657 54.4895 85.6419 62.0392 85.6419 69.5874V73.9973H97.2675V24.0675H97.4564L121.757 73.9973H123.089L147.678 24.5614H147.862V73.9973Z" fill="#5B6770"/>
<path fill-rule="evenodd" clip-rule="evenodd" d="M187.286 73.9951H173.755V69.9479C173.758 69.8315 173.759 69.7106 173.759 69.5852V5.4097C173.759 5.28465 173.758 5.16409 173.755 5.04792V1.00427H217.018C233.594 1.00019 242.366 10.2242 242.366 21.9533C242.366 33.8898 235.408 41.4062 223.688 43.3138L241.32 69.5852L241.508 69.8322C242.316 70.8912 243.136 71.9661 244.615 73.9951H227.693C227.693 73.9951 226.571 72.3327 224.353 69.0859L206.909 42.9153H187.283V69.5852C187.283 69.7064 187.284 69.8233 187.286 69.9361V73.9951ZM187.573 31.0809H216.442C223.307 31.0809 228.835 28.2734 228.835 21.9533C228.835 15.6359 223.307 12.8314 216.442 12.8314H187.573V31.0809Z" fill="#5B6770"/>
<path fill-rule="evenodd" clip-rule="evenodd" d="M253.693 73.9951H267.216L267.22 43.8281H297.022C300.107 43.8289 302.922 43.51 305.46 42.9149H305.662C311.37 41.5991 315.795 38.8311 318.642 34.7706C321.11 31.4107 322.371 27.3249 322.371 22.8791C322.371 22.3605 322.358 21.8502 322.332 21.3484H322.296C321.998 9.90866 313.245 1.00026 296.955 1.00427H253.693V73.9951ZM296.379 31.0809H267.578L267.51 12.8314H296.379C303.021 12.8314 308.411 15.4566 308.754 21.3484H308.723C308.74 21.4555 308.755 21.5638 308.768 21.6733C308.771 21.7659 308.772 21.8592 308.772 21.9533C308.772 28.2734 303.244 31.0809 296.379 31.0809Z" fill="#5B6770"/>
</svg>
