<svg width="380" height="76" viewBox="0 0 380 76" fill="none" xmlns="http://www.w3.org/2000/svg">
<path d="M330.455 75.5003L346.583 38.0015H346.637L330.474 0.499725H346.899L363.062 38.0015H363.005L346.877 75.5003H330.455Z" fill="#9D122E"/>
<path d="M346.893 75.5003L363.021 38.0015H363.075L346.912 0.499725H363.336L379.499 38.0015H379.443L363.314 75.5003H346.893Z" fill="#C50F3C"/>
<path d="M43.4555 74.4997C20.6115 74.4997 1.32037 61.0603 0.500977 38.4997L0.500977 36.4997C1.32037 13.9392 20.6115 0.499725 43.4555 0.499725C55.234 0.499725 64.1292 3.92976 74.4739 8.99973L69.0882 19.4997C61.4739 14.9997 53.8916 12.3269 42.7833 12.3269C27.7743 12.3269 14.2568 19.4201 14.0119 37.4997C14.2568 55.5793 27.7743 62.6726 42.7833 62.6726C53.8916 62.6726 61.4739 59.9997 69.0882 55.4997L74.4739 65.9997C64.1292 71.0697 55.234 74.4997 43.4555 74.4997Z" fill="white"/>
<path d="M147.862 73.9973H161.398V1.00211H146.599C142.65 8.711 138.762 16.5574 134.87 24.411L134.869 24.4133C130.999 32.2217 127.126 40.0372 123.187 47.7317C118.905 39.1226 115.912 32.9114 112.11 25.0192C109.092 18.7544 105.563 11.4299 100.474 1.00653H85.6379C85.7337 16.3166 85.7029 31.629 85.6722 46.9407C85.657 54.4896 85.6419 62.0392 85.6419 69.5875V73.9973H97.2675V24.0675H97.4564L121.757 73.9973H123.089L147.678 24.5614H147.862V73.9973Z" fill="white"/>
<path fill-rule="evenodd" clip-rule="evenodd" d="M187.286 73.9951H173.755V69.948C173.758 69.8315 173.759 69.7106 173.759 69.5853V5.40973C173.759 5.28468 173.758 5.16412 173.755 5.04796V1.0043H217.018C233.594 1.00022 242.366 10.2243 242.366 21.9533C242.366 33.8898 235.408 41.4063 223.688 43.3138L241.32 69.5853L241.508 69.8323C242.316 70.8913 243.136 71.9661 244.615 73.9951H227.693C227.693 73.9951 226.571 72.3327 224.353 69.0859L206.909 42.9153H187.283V69.5853C187.283 69.7064 187.284 69.8234 187.286 69.9362V73.9951ZM187.573 31.081H216.442C223.307 31.081 228.835 28.2735 228.835 21.9533C228.835 15.6359 223.307 12.8315 216.442 12.8315H187.573V31.081Z" fill="white"/>
<path fill-rule="evenodd" clip-rule="evenodd" d="M253.693 73.9951H267.216L267.22 43.8281H297.022C300.107 43.8289 302.922 43.51 305.46 42.9149H305.662C311.37 41.5991 315.795 38.8312 318.642 34.7706C321.11 31.4108 322.371 27.3249 322.371 22.8791C322.371 22.3605 322.358 21.8503 322.332 21.3485H322.296C321.998 9.90869 313.245 1.00029 296.955 1.0043H253.693V73.9951ZM296.379 31.081H267.578L267.51 12.8315H296.379C303.021 12.8315 308.411 15.4566 308.754 21.3485H308.723C308.74 21.4555 308.755 21.5638 308.768 21.6733C308.771 21.7659 308.772 21.8592 308.772 21.9533C308.772 28.2735 303.244 31.081 296.379 31.081Z" fill="white"/>
</svg>
